<mxfile host="app.diagrams.net" modified="2020-11-16T21:58:39.834Z" agent="5.0 (Windows NT 10.0; Win64; x64) AppleWebKit/537.36 (KHTML, like Gecko) Chrome/86.0.4240.193 Safari/537.36" etag="L3EdvgwWSCSUbAyo4Emm" version="13.9.9" type="github">
  <diagram id="T5qcUde2lgMyKFtAlCkI" name="Page-1">
    <mxGraphModel dx="868" dy="488" grid="1" gridSize="10" guides="1" tooltips="1" connect="1" arrows="1" fold="1" page="1" pageScale="1" pageWidth="850" pageHeight="1100" math="0" shadow="0">
      <root>
        <mxCell id="0" />
        <mxCell id="1" parent="0" />
        <mxCell id="J3XYLlY3Ra4Y67ZwrDen-1" value="NavBar" style="rounded=1;whiteSpace=wrap;html=1;" vertex="1" parent="1">
          <mxGeometry x="80" y="40" width="680" height="60" as="geometry" />
        </mxCell>
        <mxCell id="J3XYLlY3Ra4Y67ZwrDen-4" value="Profile" style="rounded=0;whiteSpace=wrap;html=1;" vertex="1" parent="1">
          <mxGeometry x="80" y="120" width="140" height="200" as="geometry" />
        </mxCell>
        <mxCell id="J3XYLlY3Ra4Y67ZwrDen-5" value="Main Feed" style="rounded=0;whiteSpace=wrap;html=1;" vertex="1" parent="1">
          <mxGeometry x="280" y="120" width="280" height="400" as="geometry" />
        </mxCell>
        <mxCell id="J3XYLlY3Ra4Y67ZwrDen-6" value="People you may know" style="rounded=0;whiteSpace=wrap;html=1;" vertex="1" parent="1">
          <mxGeometry x="620" y="120" width="140" height="200" as="geometry" />
        </mxCell>
        <mxCell id="J3XYLlY3Ra4Y67ZwrDen-7" value="Info" style="rounded=0;whiteSpace=wrap;html=1;" vertex="1" parent="1">
          <mxGeometry x="80" y="340" width="140" height="180" as="geometry" />
        </mxCell>
      </root>
    </mxGraphModel>
  </diagram>
</mxfile>
